<?xml version="1.0" encoding="UTF-8"?>
<svg version="1.1" xmlns="http://www.w3.org/2000/svg" width="950" height="950">
<path d="M0 0 C0.76155599 1.52311199 1.5230273 3.04626635 2.28417969 4.56958008 C2.98535944 5.97110722 3.68789041 7.37195897 4.39160156 8.7722168 C6.47885609 12.93112936 8.53729057 17.10156883 10.55859375 21.29296875 C19.20247454 39.10320632 28.80640352 55.20060394 42 70 C42.66902344 70.86109375 43.33804687 71.7221875 44.02734375 72.609375 C55.80410106 86.88140564 78.88184474 98.96514983 97.3515625 101.296875 C99.7405992 101.16773788 101.70237796 100.69069619 104 100 C105.25296875 99.62359375 106.5059375 99.2471875 107.796875 98.859375 C121.05629893 94.61337113 133.36128236 88.84393135 143.94921875 79.6640625 C146 78 146 78 148.14453125 77.0234375 C150.54082148 75.70169426 150.81714525 74.44743401 152 72 C153.69962645 70.10307032 155.41747683 68.26539616 157.1875 66.4375 C162.27456184 61.03643223 166.19963557 55.38017387 170 49 C171.14396125 47.26959425 172.28983202 45.54044954 173.4375 43.8125 C180.65197851 32.44568831 186.04603056 19.90519148 191.76293945 7.74267578 C192.16988037 6.88013184 192.57682129 6.01758789 192.99609375 5.12890625 C193.54027954 3.96983765 193.54027954 3.96983765 194.09545898 2.78735352 C195 1 195 1 196 0 C202.67589879 0.29936766 207.43826561 2.31910161 213.25 5.5 C214.07902832 5.9448877 214.90805664 6.38977539 215.76220703 6.84814453 C222.68503596 10.64809516 228.89176061 14.98460855 235 20 C235.93070313 20.70382813 236.86140625 21.40765625 237.8203125 22.1328125 C238.53960938 22.74898437 239.25890625 23.36515625 240 24 C240 24.66 240 25.32 240 26 C240.56460938 26.23074219 241.12921875 26.46148437 241.7109375 26.69921875 C260.76784245 37.52848385 274.8823383 67.65220528 283 87 C283.49757813 88.1653125 283.99515625 89.330625 284.5078125 90.53125 C287.98924464 99.03977942 290.4190133 107.80304131 292.75 116.6875 C293.04390625 117.80350586 293.3378125 118.91951172 293.640625 120.06933594 C300.50956428 147.07603354 301.71462644 176.68544624 296 204 C296.68964844 204.26425781 297.37929688 204.52851563 298.08984375 204.80078125 C301.32061252 206.13211818 304.42244734 207.65431228 307.5625 209.1875 C320.88132448 215.45198114 334.45425431 219.88815524 348.8515625 222.953125 C350.06358841 223.21140579 351.27561432 223.46968658 352.52436829 223.73579407 C365.99287902 226.52457251 379.55681262 228.39759343 393.1875 230.1875 C395.64270672 230.51923193 398.09778532 230.85191349 400.55273438 231.18554688 C416.01729926 233.2740177 431.50080497 235.18761022 447 237 C445.71735494 240.31467492 444.45630208 243.00559458 442.27734375 245.8203125 C441.47671509 246.86203613 441.47671509 246.86203613 440.65991211 247.92480469 C439.80731812 249.01390137 439.80731812 249.01390137 438.9375 250.125 C438.3504126 250.88200195 437.7633252 251.63900391 437.15844727 252.41894531 C435.44668362 254.6188135 433.7254645 256.81086901 432 259 C431.195625 260.02351563 430.39125 261.04703125 429.5625 262.1015625 C411.61141894 284.47441721 390.46298466 301.7236196 367 318 C367.65060501 326.47672326 369.65420508 334.58299236 371.6875 342.8125 C371.86707245 343.54377106 372.0466449 344.27504211 372.23165894 345.0284729 C381.47036345 382.57402195 397.82558793 417.49338752 426.56640625 444.44140625 C428 446 428 446 428 448 C428.57427734 448.25418701 429.14855469 448.50837402 429.74023438 448.77026367 C432.2550563 450.13879846 434.06170734 451.72642629 436.15625 453.67578125 C440.73233466 457.82285797 445.52912267 461.5297032 450.5 465.1875 C452.26750882 466.49921649 454.0344262 467.81173027 455.80078125 469.125 C457.11296631 470.09953125 457.11296631 470.09953125 458.45166016 471.09375 C462.2278594 473.91848306 465.95579849 476.80442998 469.6875 479.6875 C478.89176674 486.77476354 488.33362321 493.55574881 498 500 C497.55807939 505.82782803 495.07348471 509.64864173 492 514.4375 C490.9850165 516.0555754 489.97070205 517.67407066 488.95703125 519.29296875 C488.45252441 520.0926709 487.94801758 520.89237305 487.42822266 521.71630859 C485.46041867 524.86277671 483.57453288 528.05474314 481.6875 531.25 C476.8181927 539.42566834 471.67493653 547.42657363 466.546875 555.44140625 C464.31028258 558.93834872 462.08932323 562.44395536 459.890625 565.96484375 C447.02623688 586.55969601 433.32324672 606.73893569 417.96875 625.57421875 C415.54461882 628.56109467 413.18043514 631.59360769 410.8125 634.625 C404.64450103 642.5003773 398.33017905 650.25479078 392 658 C391.17242188 659.01320313 390.34484375 660.02640625 389.4921875 661.0703125 C388.02969717 662.85893307 386.56620245 664.64673301 385.1015625 666.43359375 C383.67683835 668.17345205 382.25505291 669.91572016 380.8359375 671.66015625 C376.31453733 677.21205222 371.72919945 682.7029493 367.09082031 688.15698242 C364.14065907 691.63204115 361.24350085 695.14435174 358.375 698.6875 C354.74814719 703.14334774 350.9733733 707.43231555 347.10546875 711.6796875 C345.27082315 713.70154184 343.47231214 715.74678522 341.6875 717.8125 C331.89576085 729.01126758 321.53840063 739.62178267 311.0078125 750.12255859 C308.73580631 752.38915993 306.46925556 754.66111959 304.203125 756.93359375 C302.73469583 758.40136271 301.2659568 759.86882176 299.796875 761.3359375 C299.13210144 762.00273529 298.46732788 762.66953308 297.78240967 763.35653687 C293.92183339 767.19813942 289.95766491 770.85697993 285.81768799 774.39639282 C283.96620188 776.0298175 282.22818523 777.73733929 280.5 779.5 C278.24202057 781.79326036 275.94003496 783.96428028 273.5 786.0625 C269.46351857 789.54249564 265.57529792 793.16862903 261.6875 796.8125 C253.57490073 804.41159274 245.41165891 811.94366696 237.015625 819.23046875 C234.71392236 821.25114956 232.45235621 823.31312618 230.1875 825.375 C225.87090287 829.2704657 221.4259887 832.96858218 216.90625 836.625 C214.34642926 838.71689652 211.82290359 840.84180019 209.30981445 842.98901367 C202.03417586 849.20478497 194.57026397 855.14800791 187 861 C186.44812012 861.42667969 185.89624023 861.85335937 185.32763672 862.29296875 C182.61955947 864.38414809 179.90734178 866.46981949 177.19140625 868.55078125 C175.11035777 870.14551491 173.03616244 871.74799749 170.96484375 873.35546875 C163.7966648 878.91058089 156.53017096 884.31942722 149.22021484 889.68652344 C144.1247478 893.42893399 139.0509491 897.19775067 134 901 C128.00289167 905.51155112 121.9785585 909.98496423 115.9375 914.4375 C115.15181641 915.01693359 114.36613281 915.59636719 113.55664062 916.19335938 C112.06859534 917.28867291 110.57703628 918.37923324 109.08154297 919.46435547 C107.72166216 920.46759852 106.38073165 921.49719428 105.06298828 922.55517578 C100.69213969 925.97989197 100.69213969 925.97989197 97.4453125 926.07421875 C94.28887923 924.68760669 91.61712362 922.87009232 88.875 920.8125 C88.2773584 920.37470215 87.6797168 919.9369043 87.06396484 919.48583984 C85.7474979 918.51962864 84.43399159 917.54937414 83.12304688 916.57568359 C80.89595254 914.92277803 78.65984523 913.28267669 76.421875 911.64453125 C68.26154178 905.66291151 60.14268522 899.62731935 52.0612793 893.53955078 C48.49428647 890.85643421 44.91201936 888.19653577 41.30859375 885.5625 C33.21994799 879.64900013 25.22423848 873.67865291 17.45458984 867.35009766 C12.30957045 863.18093053 6.98900458 859.28035249 1.56933594 855.47583008 C0.01185373 854.36385145 -1.49944212 853.1876756 -3 852 C-3 851.34 -3 850.68 -3 850 C-3.71929687 849.76410156 -4.43859375 849.52820313 -5.1796875 849.28515625 C-8.47509326 847.78351014 -10.50689475 845.93446903 -13.125 843.4375 C-16.72387974 840.05761902 -20.38467177 836.82495515 -24.25 833.75 C-29.56038581 829.47134629 -34.48604554 824.85306315 -39.43457031 820.16870117 C-44.01052898 815.86016106 -48.73387712 811.87338992 -53.64453125 807.94921875 C-56.35005532 805.71031906 -58.79030757 803.30861142 -61.22119141 800.77905273 C-62.9836358 799.01636644 -64.80861034 797.38938933 -66.69921875 795.765625 C-71.65699429 791.45822676 -76.41170936 786.94874998 -81.17578125 782.4296875 C-84.11598564 779.65440753 -87.05018961 776.91315151 -90.1796875 774.3515625 C-92.37631957 772.52002163 -94.38320372 770.65062384 -96.39096069 768.62329102 C-98.38619009 766.61038931 -100.39509211 764.6115039 -102.40380859 762.61206055 C-106.56038039 758.47149997 -110.71473829 754.32872726 -114.86748314 750.18432903 C-117.36866176 747.68836319 -119.87076746 745.19334155 -122.375 742.70043945 C-125.28147225 739.80702408 -128.18378573 736.90946767 -131.0859375 734.01171875 C-131.97469574 733.1281218 -132.86345398 732.24452484 -133.77914429 731.33415222 C-138.72835585 726.38538345 -143.46981672 721.33470164 -148 716 C-148.97345556 714.87066018 -149.94733652 713.74168672 -150.921875 712.61328125 C-151.86516323 711.51351796 -152.80786061 710.41324763 -153.75 709.3125 C-154.26022705 708.71655029 -154.7704541 708.12060059 -155.29614258 707.5065918 C-163.6370458 697.75559603 -171.90359273 687.95579918 -180 678 C-184.72370268 672.21368745 -189.4609619 666.43901613 -194.21484375 660.67749023 C-199.86474881 653.82787621 -205.49681412 646.96853124 -211 640 C-211.40782715 639.48405273 -211.8156543 638.96810547 -212.23583984 638.43652344 C-226.09171768 620.89551793 -239.57162102 603.15569352 -252 584.5625 C-252.39106934 583.97823242 -252.78213867 583.39396484 -253.18505859 582.79199219 C-259.35250958 573.52436579 -265.22959323 564.06689914 -271.125 554.625 C-272.09397217 553.07341187 -272.09397217 553.07341187 -273.08251953 551.49047852 C-291.24454088 522.38991653 -291.24454088 522.38991653 -298.37451172 510.35131836 C-299.96802391 507.51360662 -299.96802391 507.51360662 -302 505 C-302.4375 502.72265625 -302.4375 502.72265625 -302 500 C-300.01296844 498.20856686 -298.2275758 496.8664438 -296 495.4375 C-294.71074106 494.56601487 -293.42304086 493.69222036 -292.13671875 492.81640625 C-291.45915527 492.36023926 -290.7815918 491.90407227 -290.08349609 491.43408203 C-286.57914868 489.02202008 -283.20095862 486.44607263 -279.8125 483.875 C-275.34096805 480.5004697 -270.85695299 477.15123355 -266.3125 473.875 C-261.16962812 470.15298161 -256.12355973 466.31584214 -251.11328125 462.41796875 C-249.24694107 460.96845235 -247.37201783 459.52974358 -245.48046875 458.11328125 C-232.08919702 448.02493804 -232.08919702 448.02493804 -222 435 C-221.34 435 -220.68 435 -220 435 C-219.79375 434.319375 -219.5875 433.63875 -219.375 432.9375 C-217.88412879 429.75245697 -216.0949186 427.68660344 -213.77075195 425.09008789 C-207.91990953 418.1841094 -203.18956623 410.30626508 -198.4375 402.625 C-197.89931641 401.7690625 -197.36113281 400.913125 -196.80664062 400.03125 C-190.39093109 389.68582187 -185.40227205 379.40949719 -182.0625 367.6875 C-181.73185547 366.55046631 -181.40121094 365.41343262 -181.06054688 364.24194336 C-178.41108814 354.91647945 -176.13865441 345.51639573 -174 336.0625 C-173.8462088 335.38488617 -173.6924176 334.70727234 -173.53396606 334.00912476 C-171.66069282 326.07940241 -171.66069282 326.07940241 -171 318 C-172.38308127 316.49150908 -172.38308127 316.49150908 -174.33203125 315.30078125 C-175.04254639 314.81867188 -175.75306152 314.3365625 -176.48510742 313.83984375 C-177.25314697 313.33582031 -178.02118652 312.83179688 -178.8125 312.3125 C-180.39009842 311.23872315 -181.96562179 310.16189134 -183.5390625 309.08203125 C-184.69390137 308.2923999 -184.69390137 308.2923999 -185.87207031 307.48681641 C-190.47756071 304.26889115 -194.72961107 300.64292807 -199 297 C-200.1310581 296.05414636 -201.26259642 295.10886676 -202.39453125 294.1640625 C-213.69263753 284.67814907 -223.89118443 274.64928002 -233 263 C-233.556875 262.29294922 -234.11375 261.58589844 -234.6875 260.85742188 C-236.56664604 258.47066753 -238.44073431 256.08004603 -240.3125 253.6875 C-240.91167236 252.92236084 -241.51084473 252.15722168 -242.12817383 251.36889648 C-251 239.95548623 -251 239.95548623 -251 237 C-249.79093994 236.84966309 -248.58187988 236.69932617 -247.33618164 236.54443359 C-173.67062879 229.44678802 -173.67062879 229.44678802 -104.51953125 205.25 C-102 204 -102 204 -100 204 C-100.2165625 202.96488281 -100.433125 201.92976562 -100.65625 200.86328125 C-106.1459127 172.25513397 -103.96943208 141.89576226 -96 114 C-95.53995182 112.31261248 -95.08031886 110.6251117 -94.62109375 108.9375 C-87.21498108 82.39658777 -74.14221039 57.77623441 -56 37 C-55.33943604 36.23091309 -55.33943604 36.23091309 -54.66552734 35.44628906 C-47.22354944 26.82653727 -39.18301669 19.71436969 -30 13 C-29.23300781 12.41605469 -28.46601563 11.83210938 -27.67578125 11.23046875 C-23.01074478 7.86275671 -17.98062195 5.47248147 -12.75 3.125 C-12.06373535 2.81401367 -11.3774707 2.50302734 -10.67041016 2.18261719 C-6.98662953 0.5931824 -4.0257558 -0.39009262 0 0 Z " fill="#000000" transform="translate(377,12)"/>
<path d="M0 0 C6.38242587 1.82813203 12.69724561 3.85406403 19 5.9375 C19.73460449 6.17807129 20.46920898 6.41864258 21.22607422 6.66650391 C26.9097841 8.55772731 32.45858148 10.72746889 38 13 C37.98428955 14.80065918 37.98428955 14.80065918 37.96826172 16.63769531 C36.43292136 106.25101968 36.43292136 106.25101968 47 195 C47.17756836 195.89750977 47.35513672 196.79501953 47.53808594 197.71972656 C57.81437181 248.25853713 84.81741303 294.55263761 116 335 C116.62575928 335.81500977 116.62575928 335.81500977 117.26416016 336.64648438 C133.82979761 358.17751668 151.98226585 379.67606798 173 397 C174.06394317 397.91259595 175.12772874 398.82537566 176.19140625 399.73828125 C187.75445173 409.52746786 200.17391531 417.95745756 213 426 C213.91410645 426.57637207 214.82821289 427.15274414 215.77001953 427.74658203 C224.6920298 433.6353401 224.6920298 433.6353401 234.83203125 436.02734375 C237.59321293 435.04284282 239.59913004 433.68610715 242 432 C243.18840931 431.34427889 244.38589731 430.70486245 245.58984375 430.078125 C260.83114942 422.0716995 274.72642163 411.91183807 288 401 C288.56976562 400.53464844 289.13953125 400.06929687 289.7265625 399.58984375 C304.59173782 387.3577376 318.50846165 373.64254584 331 359 C331.845625 358.03578125 332.69125 357.0715625 333.5625 356.078125 C341.87847405 346.42946281 349.47643591 336.27345829 357 326 C357.53802246 325.2673291 358.07604492 324.5346582 358.63037109 323.77978516 C418.05982042 242.45825542 426.40505401 157.48876068 429 13 C441.66680865 7.66356277 441.66680865 7.66356277 447.1328125 5.76171875 C448.6178125 5.24448242 448.6178125 5.24448242 450.1328125 4.71679688 C451.61394531 4.20729492 451.61394531 4.20729492 453.125 3.6875 C454.15109375 3.32849609 455.1771875 2.96949219 456.234375 2.59960938 C463.74105655 0 463.74105655 0 466 0 C466.03963867 0.67240723 466.07927734 1.34481445 466.12011719 2.03759766 C468.34327746 38.21615336 476.25159804 72.25332291 492 105 C492.34256836 105.7125293 492.68513672 106.42505859 493.03808594 107.15917969 C500.60309734 122.64876968 510.15591108 136.46730126 522 149 C523.19265522 150.39143109 524.38040313 151.78708794 525.5625 153.1875 C529.06861513 157.19562707 532.93408678 160.57329842 537 164 C538.04418579 164.90484746 539.08705249 165.81121839 540.12890625 166.71875 C549.78856203 175.11210721 559.66570461 183.15607589 570.03515625 190.66015625 C570.89858643 191.28680176 571.7620166 191.91344727 572.65161133 192.55908203 C574.35532309 193.79072332 576.06463912 195.01465723 577.7800293 196.22998047 C578.55902588 196.79217285 579.33802246 197.35436523 580.140625 197.93359375 C580.83704102 198.42915771 581.53345703 198.92472168 582.25097656 199.43530273 C584.1580024 201.14135083 585.0169727 202.65724477 586 205 C565.54219791 235.90331516 544.77457472 266.74485523 522 296 C520.71606223 297.67074934 519.43530561 299.34390733 518.15454102 301.01708984 C513.51418252 307.07496675 508.78607345 313.0566383 504 319 C503.4121875 319.73992187 502.824375 320.47984375 502.21875 321.2421875 C488.50886522 338.49572894 474.35708452 355.36487141 459.36816406 371.52294922 C457.97837725 373.02334362 456.59401301 374.52857469 455.2109375 376.03515625 C442.73474165 389.61506456 430.14227885 403.06025627 417 416 C413.97369945 412.28967261 411.1411745 408.46817325 408.375 404.5625 C407.9411499 403.95414307 407.5072998 403.34578613 407.06030273 402.71899414 C404.86123802 399.63363851 402.67592072 396.5395984 400.51171875 393.4296875 C395.15886745 385.77452309 389.43236293 378.6114159 383.32275391 371.54931641 C380.49761343 368.24028328 377.791903 364.83172694 375.0703125 361.4375 C372.84101381 358.81281626 370.46401053 356.40391271 368 354 C370.61793125 363.76093172 373.40439249 373.47276775 376.1875 383.1875 C376.65566099 384.82354996 377.12376041 386.45961754 377.59179688 388.09570312 C378.7271555 392.06400539 379.86334478 396.03206894 381 400 C378.50434749 402.52516805 376.00267549 405.04429373 373.5 407.5625 C372.80390625 408.26697266 372.1078125 408.97144531 371.390625 409.69726562 C367.34555719 413.7610606 363.20148224 417.62178453 358.85742188 421.36303711 C356.10908705 423.78516974 353.55613329 426.37832483 351 429 C347.18261025 432.86444449 343.31965147 436.58001638 339.1796875 440.1015625 C336.28373833 442.62384081 333.49358367 445.25362881 330.6875 447.875 C325.75975119 452.46733361 320.66900423 456.77069834 315.4140625 460.98828125 C312.72023956 463.2331337 310.31913763 465.6490512 307.890625 468.171875 C304.60996274 471.34408562 301.01606565 474.13800342 297.453125 476.984375 C295.51004385 478.58091938 293.7283014 480.17952253 292 482 C293.140266 485.42079799 293.85569251 485.88541745 296.71875 487.890625 C297.48268066 488.43243408 298.24661133 488.97424316 299.03369141 489.5324707 C299.84757324 490.09925537 300.66145508 490.66604004 301.5 491.25 C303.14409212 492.41414681 304.78733057 493.57950024 306.4296875 494.74609375 C307.21956055 495.30538574 308.00943359 495.86467773 308.82324219 496.44091797 C312.64298602 499.17677307 316.32731988 502.07061428 320 505 C316.20592182 509.6391885 312.27614668 513.77278626 307.6875 517.625 C307.08631348 518.13369629 306.48512695 518.64239258 305.86572266 519.16650391 C295.08947522 528.19495372 283.80010255 536.52911579 272.3125 544.625 C271.05638916 545.51324463 271.05638916 545.51324463 269.77490234 546.41943359 C265.63467458 549.30728228 261.59660186 551.90590998 257 554 C256.35973877 553.54036865 255.71947754 553.0807373 255.05981445 552.60717773 C252.15487323 550.53492496 249.23414039 548.48613297 246.3125 546.4375 C245.30509766 545.71369141 244.29769531 544.98988281 243.25976562 544.24414062 C242.28330078 543.56416016 241.30683594 542.88417969 240.30078125 542.18359375 C239.40528564 541.54993896 238.50979004 540.91628418 237.5871582 540.26342773 C235.10268216 538.79625971 235.10268216 538.79625971 232.48632812 539.10351562 C229.63523814 540.13152058 227.42378522 541.45374135 224.91796875 543.16015625 C223.52094727 544.1027832 223.52094727 544.1027832 222.09570312 545.06445312 C221.13599609 545.72380859 220.17628906 546.38316406 219.1875 547.0625 C218.20845703 547.72572266 217.22941406 548.38894531 216.22070312 549.07226562 C213.8087828 550.70766526 211.40221906 552.35039798 209 554 C203.21655678 550.93152077 197.84491281 547.63553444 192.625 543.6875 C191.32053745 542.71454208 190.01584839 541.74188778 188.7109375 540.76953125 C188.08026367 540.29725098 187.44958984 539.8249707 186.79980469 539.33837891 C184.30663181 537.48439441 181.77744459 535.68186941 179.25 533.875 C173.6479907 529.79931135 168.30323123 525.45527027 163 521 C162.40654785 520.5035498 161.8130957 520.00709961 161.20166016 519.49560547 C159.29626128 517.89855524 157.39720162 516.2942761 155.5 514.6875 C154.90018311 514.18379883 154.30036621 513.68009766 153.68237305 513.16113281 C150.73098503 510.64326539 148.16788051 508.2595632 146 505 C153.38395635 499.23511713 160.83505631 493.60661931 168.50439453 488.22509766 C170.8298599 486.58702136 172.98411048 485.01588952 175 483 C171.22917845 478.99752389 167.29896899 475.36896404 163 471.9375 C157.53929088 467.54633667 152.44674023 462.82881586 147.34887695 458.02441406 C143.58465112 454.47695588 139.78421275 450.9962522 135.8671875 447.6171875 C124.64392369 437.8966201 113.70372824 427.80749819 103.2734375 417.2421875 C101.18078471 415.1782997 99.03801773 413.23104977 96.8125 411.3125 C96.18085938 410.76207031 95.54921875 410.21164062 94.8984375 409.64453125 C93.58157607 408.50379326 92.25248988 407.3770749 90.9140625 406.26171875 C90.26179687 405.68035156 89.60953125 405.09898437 88.9375 404.5 C88.34839844 403.9946875 87.75929688 403.489375 87.15234375 402.96875 C84.97770276 399.25343116 86.68057805 395.27163242 87.66967773 391.33398438 C88.49618233 388.21237775 89.36605263 385.10581772 90.25 382 C90.56138916 380.89599854 90.87277832 379.79199707 91.19360352 378.65454102 C93.5594144 370.34960334 96.12664976 362.14336587 99 354 C95.12612763 357.09467693 91.89619254 360.08722958 88.8125 364 C85.95847113 367.57946765 83.06414456 371.09744241 80.05541992 374.5480957 C73.07230389 382.59805938 67.0250306 391.22155361 61 400 C59.93256513 401.54706372 58.86485624 403.09393841 57.796875 404.640625 C55.18959603 408.42142579 52.59210935 412.20878495 50 416 C41.6673337 409.00238498 33.99930371 401.4425564 26.94140625 393.16015625 C24.39888732 390.33115631 21.70522933 387.67252147 19 385 C15.11627293 381.15847443 11.37445215 377.27627223 7.83203125 373.11328125 C5.95079117 370.94323672 4.01012787 368.83473649 2.05639648 366.72998047 C-2.78026977 361.51796317 -7.36860909 356.17948586 -11.828125 350.63671875 C-13.93756349 348.07579972 -16.12887648 345.62876545 -18.375 343.1875 C-22.35261685 338.81762681 -26.00876594 334.26390464 -29.62792969 329.59887695 C-33.22465559 324.96606997 -36.90880121 320.4123388 -40.625 315.875 C-45.02398142 310.48699653 -49.29965025 305.03707563 -53.43359375 299.44140625 C-55.4985232 296.65379411 -57.60636578 293.90114943 -59.72265625 291.15234375 C-67.30042612 281.30241833 -74.63489796 271.37412816 -81.58544922 261.07373047 C-83.6683906 258.02013985 -85.8035029 255.00407139 -87.93481445 251.98413086 C-94.58494287 242.55871554 -101.04463256 233.01848367 -107.40698242 223.39648438 C-111.51096354 217.19599012 -115.70391142 211.06906436 -120 205 C-118.60668713 201.69054764 -117.1303593 200.06566619 -114.2109375 198.00390625 C-113.05754883 197.17572388 -113.05754883 197.17572388 -111.88085938 196.33081055 C-111.05392578 195.74726807 -110.22699219 195.16372559 -109.375 194.5625 C-100.90537144 188.45990467 -92.75619104 182.07319659 -84.71923828 175.41503906 C-83.18828888 174.15497335 -81.64019353 172.91580531 -80.08984375 171.6796875 C-35.30682247 135.93241573 -9.02803425 83.55066799 -1.9987793 26.80126953 C-1.00912864 17.89538482 -0.4631852 8.94678779 0 0 Z " fill="#FFFFFF" transform="translate(242,323)"/>
<path d="M0 0 C1.62875325 2.36716191 3.07212342 4.70283182 4.5 7.1875 C12.56159954 20.59973185 23.85877488 35.23918325 37 44 C35.52206124 48.25300464 33.33068038 51.51398047 30.75 55.1875 C18.44262557 73.47955893 16.1093189 97.23464227 20.25 118.5625 C21.82468881 125.80305476 23.82072153 132.92011056 26 140 C30.93299836 139.43925979 34.93535702 137.86370809 39.3125 135.625 C40.00472656 135.2734082 40.69695312 134.92181641 41.41015625 134.55957031 C62.93392721 123.36217688 81.72884412 107.71740017 100.14501953 92.10546875 C103.77117049 89.03359931 107.4048005 85.97178334 111.0625 82.9375 C111.91972656 82.22464844 112.77695312 81.51179688 113.66015625 80.77734375 C115.72406594 79.20959932 117.64122325 78.05137162 120 77 C120.59425781 77.54527344 121.18851562 78.09054688 121.80078125 78.65234375 C128.03362855 84.32297465 134.44959489 89.70215111 141 95 C142.68754781 96.39577553 144.37504693 97.79160993 146.0625 99.1875 C148.03800989 100.79644928 150.01671338 102.40070648 152 104 C152.63260742 104.51191895 153.26521484 105.02383789 153.91699219 105.55126953 C180.38728822 128.53757487 180.38728822 128.53757487 212 140 C219.61819175 113.83063902 224.13386606 86.34101165 211 61 C209.07602502 57.81487513 207.05328167 54.6981817 204.94677734 51.63085938 C202 47.29611623 202 47.29611623 202 44 C203.67724609 42.0456543 203.67724609 42.0456543 206.0234375 39.82421875 C206.87534668 39.0029248 207.72725586 38.18163086 208.60498047 37.33544922 C209.51908691 36.46162598 210.43319336 35.58780273 211.375 34.6875 C219.29529668 26.94793678 226.13160069 19.39898102 232 10 C232.95132813 8.47632812 232.95132813 8.47632812 233.921875 6.921875 C235.31618834 4.63213107 236.67813957 2.33206271 238 0 C247.03018092 1.90615759 252.1576105 10.79764613 257 18 C276.13495453 48.04431841 284.21990054 86.10693244 276.97509766 121.16503906 C269.04105846 155.65341856 252.77051944 188.72121714 230.49316406 216.15966797 C228.94310105 218.07012824 227.40463382 219.98953246 225.8671875 221.91015625 C219.46745548 229.87635799 212.89065266 237.66455088 206.16796875 245.359375 C201.37670616 250.84779072 196.69070457 256.42567573 192 262 C205.93878155 257.35373948 219.92902608 243.1399874 230.5546875 233.2578125 C232.65882391 231.31501563 234.80582946 229.46383928 237 227.625 C246.92972678 218.94912874 255.04465086 208.45018993 263 198 C263.50208984 197.34418945 264.00417969 196.68837891 264.52148438 196.01269531 C270.46736533 188.23530398 276.20874125 180.41752162 281.4765625 172.16015625 C283 170 283 170 285 169 C286.72973633 169.76928711 286.72973633 169.76928711 288.83203125 171.02734375 C289.619729 171.48608887 290.40742676 171.94483398 291.21899414 172.41748047 C292.07485107 172.91908691 292.93070801 173.42069336 293.8125 173.9375 C304.1756486 179.80810595 314.70110781 184.26547012 326 188 C326.73379883 188.24443848 327.46759766 188.48887695 328.22363281 188.74072266 C348.4470146 195.25137081 370.95296087 197.57731127 392.06469727 199.36791992 C395.4978569 199.68419584 397.04488271 200.02992181 400 202 C368.85797383 224.94260662 333.20827011 238.2481593 297.375 252.0625 C296.0869639 252.55973276 294.79895934 253.05704722 293.51098633 253.55444336 C292.87437576 253.8002565 292.2377652 254.04606964 291.5818634 254.29933167 C290.29991967 254.79439516 289.01800835 255.28954263 287.73612976 255.78477478 C287.10391006 256.02901688 286.47169037 256.27325897 285.8203125 256.52490234 C285.18931641 256.76867615 284.55832031 257.01244995 283.90820312 257.26361084 C282.0044487 257.99828321 280.09989979 258.73086886 278.1953125 259.46337891 C218.31042949 282.54050259 159.13953164 315.86843176 120 368 C116.1342257 366.71140857 114.79598436 364.3561662 112.5 361.1875 C100.2116356 344.77810682 85.32067632 331.29887403 69 319 C68.39397949 318.54238281 67.78795898 318.08476562 67.16357422 317.61328125 C26.58775556 287.10932282 -18.85569609 266.80620242 -66.17912292 249.18263245 C-143.37477623 220.3853655 -143.37477623 220.3853655 -162 201 C-154.4631472 199.79258131 -146.91762118 198.70781094 -139.3515625 197.703125 C-106.03791394 193.24757617 -75.98600632 186.9843852 -47 169 C-42.4280634 173.18319523 -39.2138639 177.9065772 -35.8125 183.0625 C-30.60920807 190.8099511 -25.10401778 197.93648778 -19 205 C-17.45396934 206.9131483 -15.91223048 208.82977353 -14.375 210.75 C-10.51986193 215.47697142 -6.39646144 219.77900708 -2 224 C3 229 3 229 4.8125 230.91796875 C14.10812215 240.57242926 24.95667398 248.31155127 35.75 256.1875 C36.53689209 256.76467773 37.32378418 257.34185547 38.13452148 257.93652344 C38.86872314 258.46665039 39.6029248 258.99677734 40.359375 259.54296875 C41.01389648 260.01758545 41.66841797 260.49220215 42.34277344 260.98120117 C43.9597416 262.17457075 43.9597416 262.17457075 46 262 C45.63390625 261.58492188 45.2678125 261.16984375 44.890625 260.7421875 C39.38419597 254.47534684 33.95484227 248.14321706 28.53759766 241.79931641 C27.54620614 240.6391774 26.55377096 239.47992905 25.56005859 238.32177734 C-11.15017785 195.533943 -44.5241146 142.60938216 -41 84 C-38.51262182 53.29930445 -26.71248562 23.54810374 -4.9453125 1.546875 C-3 0 -3 0 0 0 Z " fill="#FFFFFF" transform="translate(356,71)"/>
<path d="M0 0 C6.70205587 1.12347498 12.86151118 3.95739745 19.125 6.5 C19.82074127 6.78189178 20.51648254 7.06378357 21.23330688 7.35421753 C57.18681896 21.99835466 91.56440772 39.74248114 122 64 C122.64501465 64.51353027 123.2900293 65.02706055 123.95458984 65.55615234 C132.18418768 72.12928235 140.35797331 78.74299145 148 86 C148.53866699 86.51143555 149.07733398 87.02287109 149.63232422 87.54980469 C171.58671377 108.54122929 171.58671377 108.54122929 172.12025452 116.87931824 C172.11803391 117.58325211 172.11581329 118.28718597 172.11352539 119.01245117 C172.11344986 119.81305466 172.11337433 120.61365814 172.11329651 121.43852234 C172.10813522 122.29798965 172.10297394 123.15745697 172.09765625 124.04296875 C172.09553383 125.36836418 172.09553383 125.36836418 172.09336853 126.72053528 C172.08777069 129.54289128 172.07521861 132.36516797 172.0625 135.1875 C172.05748472 137.10091031 172.05292186 139.01432187 172.04882812 140.92773438 C172.03780197 145.61852014 172.02053883 150.30924663 172 155 C132.06533229 151.57193477 132.06533229 151.57193477 119 143 C118.66294326 140.11264669 118.50983649 137.39316923 118.4375 134.5 C117.98991866 127.91100498 117.19888201 124.02823237 112.0625 119.4375 C110.06893901 117.92177708 108.04815449 116.44109839 106 115 C104.34644819 113.6133189 102.70063687 112.21735788 101.0625 110.8125 C99.05116628 109.1943165 97.03314879 107.59027348 95 106 C94.31325195 105.46246094 93.62650391 104.92492187 92.91894531 104.37109375 C80.112848 94.41505056 66.81234242 85.49700755 53 77 C51.60272519 79.79454963 52.08486564 81.80091846 52.34204102 84.91381836 C52.44311157 86.16325729 52.54418213 87.41269623 52.64831543 88.69999695 C52.7664515 90.07997969 52.88499344 91.45992773 53.00390625 92.83984375 C53.12350514 94.26726351 53.24292738 95.69469809 53.36218262 97.12214661 C53.75060479 101.72830611 54.15538975 106.33296009 54.5625 110.9375 C54.66488039 112.10340416 54.66488039 112.10340416 54.76932907 113.29286194 C57.13194065 140.61736385 57.13194065 140.61736385 61.0625 167.75 C61.28301025 169.019646 61.50352051 170.28929199 61.73071289 171.59741211 C63.44927257 180.63853044 66.13137634 189.27389744 69 198 C69.44755737 199.39289433 69.89457956 200.78596074 70.34106445 202.17919922 C76.19943972 220.20514943 84.54184895 237.831209 95.69189453 253.18701172 C97.12285735 255.17027597 98.51414711 257.17799478 99.90234375 259.19140625 C105.24749482 266.90939668 110.7579171 274.43876668 116.69897461 281.71118164 C120 285.79446374 120 285.79446374 120 288 C120.66 288 121.32 288 122 288 C121.34 266.88 120.68 245.76 120 224 C110.1 220.37 100.2 216.74 90 213 C83.24048045 209.62024022 83.24048045 209.62024022 81.875 205.6953125 C81.56385254 204.81601074 81.25270508 203.93670898 80.93212891 203.03076172 C80.62452637 202.07186035 80.31692383 201.11295898 80 200.125 C79.66532715 199.12355957 79.3306543 198.12211914 78.98583984 197.09033203 C73.23315349 179.13065901 67.62221082 157.9777276 68 139 C68.58676514 139.26103516 69.17353027 139.52207031 69.77807617 139.79101562 C80.39587426 144.4995004 91.0339755 149.13837176 101.875 153.3125 C102.64352295 153.61285156 103.4120459 153.91320312 104.20385742 154.22265625 C118.34692015 159.58083392 132.79303861 162.98733498 147.625 165.75 C149.22279666 166.05525556 150.82045362 166.36124324 152.41796875 166.66796875 C158.93145654 167.90952656 165.43134216 169.07794721 172 170 C172.02339372 197.00842384 172.04101093 224.01684615 172.05181217 251.02527809 C172.05696139 263.5666602 172.06397785 276.108036 172.07543945 288.64941406 C172.08542833 299.58456723 172.09186342 310.51971584 172.09408849 321.45487344 C172.09538847 327.2411985 172.09842903 333.02751048 172.10573006 338.81383133 C172.11255667 344.26875598 172.11460353 349.72366226 172.11310768 355.17859077 C172.11338104 357.17228228 172.11534653 359.16597445 172.11920547 361.15966225 C172.13882494 371.82607075 171.97891865 382.36962269 171 393 C167.74576431 391.73542671 164.99711883 390.47593042 162.171875 388.41796875 C161.10839844 387.64791504 161.10839844 387.64791504 160.0234375 386.86230469 C159.27320313 386.30961914 158.52296875 385.75693359 157.75 385.1875 C156.57050781 384.32560059 156.57050781 384.32560059 155.3671875 383.44628906 C152.90472958 381.63976542 150.45072831 379.82239913 148 378 C146.84274414 377.13979248 146.84274414 377.13979248 145.66210938 376.26220703 C137.08363759 369.85785782 128.84680295 363.29462052 121 356 C119.73246698 354.91280705 118.46169369 353.82937895 117.1875 352.75 C109.15825437 345.74888948 101.53572162 338.05456245 94.65234375 329.92578125 C93.46588158 328.54297783 92.24530006 327.18917756 91.00390625 325.85546875 C84.64593799 319.02150287 79.10033027 311.70018993 73.59570312 304.17822266 C71.9938347 301.99158403 70.3800698 299.81408217 68.765625 297.63671875 C8.4590774 215.79792471 0.56731664 129.0612311 0 0 Z " fill="#FFFFFF" transform="translate(297,343)"/>
<path d="M0 0 C0.32892089 29.11807623 0.2536228 58.10725636 -1.375 87.1875 C-1.46982162 88.9041687 -1.46982162 88.9041687 -1.56655884 90.65551758 C-2.74979657 111.68125216 -4.2909693 132.58950476 -7.75 153.375 C-7.87839264 154.15840759 -8.00678528 154.94181519 -8.1390686 155.7489624 C-9.8215178 165.95738022 -11.71662483 176.07395582 -14.1875 186.125 C-14.42500977 187.10130371 -14.66251953 188.07760742 -14.90722656 189.08349609 C-16.83721536 196.47548817 -16.83721536 196.47548817 -20 199 C-22.13110352 200.03979492 -22.13110352 200.03979492 -24.62890625 200.98046875 C-26.0360791 201.51329468 -26.0360791 201.51329468 -27.47167969 202.05688477 C-28.49165039 202.42998779 -29.51162109 202.80309082 -30.5625 203.1875 C-32.1717334 203.77905884 -32.1717334 203.77905884 -33.81347656 204.38256836 C-51.79850368 210.90298953 -69.89428952 216.17410381 -88.5625 220.3125 C-89.30705444 220.4776712 -90.05160889 220.64284241 -90.81872559 220.8130188 C-101.49809438 223.16428099 -112.21940041 225.17201845 -123 227 C-123.02283554 227.74502274 -123.04567108 228.49004547 -123.06919861 229.25764465 C-123.28513077 236.27645991 -123.5053809 243.29512322 -123.73049068 250.31364918 C-123.84607105 253.9220019 -123.95997708 257.53039132 -124.07006836 261.13891602 C-124.17636031 264.62089315 -124.28703509 268.1027058 -124.40075874 271.58444786 C-124.4641452 273.56025687 -124.52298392 275.53621007 -124.58177185 277.51216125 C-124.62173782 278.71317978 -124.6617038 279.9141983 -124.70288086 281.15161133 C-124.73619003 282.21084305 -124.76949921 283.27007477 -124.80381775 284.36140442 C-125 287 -125 287 -126 290 C-113.66229406 280.42057273 -104.44397788 267.96044973 -96.6328125 254.58203125 C-96.19936523 253.86563477 -95.76591797 253.14923828 -95.31933594 252.41113281 C-93.90778571 249.95779872 -93.90778571 249.95779872 -92.84472656 247.00292969 C-90.50328527 241.66404696 -88.22335295 238.22560253 -82.74658203 236.01586914 C-77.41775812 234.2142273 -71.97065746 232.91491358 -66.5 231.625 C-62.79778625 230.69622836 -59.10227698 229.74210168 -55.40625 228.7890625 C-54.51333252 228.5651886 -53.62041504 228.3413147 -52.70043945 228.11065674 C-45.77487194 226.33331988 -39.34456059 223.92133978 -32.81835938 221.01708984 C-30 220 -30 220 -27 221 C-29.12428463 225.58947519 -31.25685487 230.1749827 -33.39648438 234.75732422 C-34.12000868 236.30970003 -34.84143847 237.86305415 -35.56054688 239.41748047 C-39.77749182 248.52867298 -44.18665396 257.39769489 -49.28027344 266.05322266 C-50.85391648 268.74968369 -52.32036654 271.47526008 -53.75 274.25 C-62.46988743 290.24423203 -73.79511917 304.70239748 -85 319 C-85.46567383 319.59458008 -85.93134766 320.18916016 -86.41113281 320.80175781 C-101.30326189 339.69369134 -118.51260088 357.84328096 -138 372 C-139.42219915 373.05425036 -140.84405624 374.10896227 -142.265625 375.1640625 C-149.86710867 380.76459279 -157.59065705 386.155226 -165.5 391.3125 C-166.58631714 392.0240625 -166.58631714 392.0240625 -167.69458008 392.75 C-172.75196559 396 -172.75196559 396 -175 396 C-175 322.08 -175 248.16 -175 172 C-166.09 171.01 -157.18 170.02 -148 169 C-142.35110739 168.03654865 -136.78577136 167.04707365 -131.1875 165.875 C-129.86806284 165.60696637 -128.54839916 165.34004553 -127.22851562 165.07421875 C-124.85066119 164.59401647 -122.47376771 164.10900032 -120.09838867 163.61669922 C-117.07367655 163.01466448 -114.04463979 162.49023134 -111 162 C-115.26850899 172.81376038 -119.71163159 183.54716291 -124.23364258 194.25708008 C-125.32987791 196.85366194 -126.42387023 199.45118079 -127.51757812 202.04882812 C-128.21601778 203.70578315 -128.9145807 205.36268622 -129.61328125 207.01953125 C-129.93927811 207.79335648 -130.26527496 208.5671817 -130.60115051 209.36445618 C-132.88380309 214.76760618 -132.88380309 214.76760618 -134 217 C-133.34 217 -132.68 217 -132 217 C-131.72325439 216.41331543 -131.44650879 215.82663086 -131.16137695 215.22216797 C-130.05757505 213.11016358 -128.85868271 211.3383227 -127.41796875 209.4453125 C-117.63608726 196.37517141 -109.0644804 182.6780578 -101.46484375 168.22265625 C-97.59808077 160.89791166 -94.73996748 155.55788828 -87 152 C-68.68033047 141.7105892 -56.90642251 130.47263658 -50.03125 110.21875 C-47.54166983 101.09028938 -46.92915178 91.38871426 -46 82 C-47.19238281 82.56589844 -48.38476562 83.13179688 -49.61328125 83.71484375 C-51.17964531 84.45581836 -52.74605388 85.19669888 -54.3125 85.9375 C-55.09818359 86.31068359 -55.88386719 86.68386719 -56.69335938 87.06835938 C-57.45068359 87.42607422 -58.20800781 87.78378906 -58.98828125 88.15234375 C-59.68477783 88.48226318 -60.38127441 88.81218262 -61.09887695 89.15209961 C-63 90 -63 90 -66 91 C-63.24474233 80.13070813 -59.72150918 69.48916807 -56.3125 58.8125 C-55.69966274 56.88743569 -55.08703079 54.96230602 -54.47460938 53.03710938 C-52.98544024 48.35731544 -51.4934908 43.67841643 -50 39 C-51.8450933 40.8450933 -52.59998638 43.38367419 -53.67773438 45.72558594 C-61.66811481 63.06099821 -70.87697204 79.81894166 -81 96 C-81.56847656 96.95390625 -82.13695312 97.9078125 -82.72265625 98.890625 C-86.29621446 104.5339746 -89.9274832 107.60474654 -95.6796875 110.9375 C-102.2313653 115.00724809 -108.20152753 119.94543246 -114.2734375 124.69067383 C-115.80592548 125.852825 -117.39971078 126.93314052 -119 128 C-119.50531866 129.92441415 -119.50531866 129.92441415 -119.51171875 132.1328125 C-119.54716797 132.93847656 -119.58261719 133.74414062 -119.61914062 134.57421875 C-119.65297852 135.83685547 -119.65297852 135.83685547 -119.6875 137.125 C-119.72166016 137.97449219 -119.75582031 138.82398438 -119.79101562 139.69921875 C-119.87359173 141.79901105 -119.93846978 143.89948564 -120 146 C-137.06286176 151.98449033 -155.7487841 157 -174 157 C-176.01454687 150.95635938 -175.55077898 144.10807422 -175.6796875 137.77026367 C-175.72616232 135.98049896 -175.79415545 134.19114984 -175.88476562 132.40307617 C-176.70218968 115.96461737 -176.70218968 115.96461737 -171.23101807 109.58921814 C-168.93714857 107.25524031 -166.48201106 105.1306006 -164 103 C-162.47317848 101.31559541 -160.96808886 99.61083348 -159.5 97.875 C-154.68865805 92.51280674 -149.40684883 87.75122794 -144 83 C-143.34515625 82.41863281 -142.6903125 81.83726562 -142.015625 81.23828125 C-140.76602656 80.13553733 -139.51051744 79.03946468 -138.25 77.94921875 C-136.51078895 76.4425064 -134.78400062 74.92144736 -133.0625 73.39453125 C-118.42305033 60.50668042 -102.5798241 49.24779194 -86 39 C-85.31228516 38.57235352 -84.62457031 38.14470703 -83.91601562 37.70410156 C-64.03245957 25.41870514 -42.60003806 16.75448059 -21 8 C-19.39777588 7.3495874 -19.39777588 7.3495874 -17.76318359 6.68603516 C-14.92704414 5.53669318 -12.08929254 4.39152805 -9.25 3.25 C-8.41670166 2.91476318 -7.58340332 2.57952637 -6.72485352 2.23413086 C-1.12297056 0 -1.12297056 0 0 0 Z " fill="#FFFFFF" transform="translate(656,341)"/>
<path d="M0 0 C-0.79696611 13.01711308 -5.86537263 24.8705682 -14.3125 34.6875 C-24.07520683 43.08796867 -35.39060773 48.53048378 -48 51 C-49.91472991 32.89352841 -49.91472991 32.89352841 -46.82226562 28.22021484 C-43.68480102 25.2888386 -39.97040888 23.53026176 -36 22 C-34.88625 22.72703125 -34.88625 22.72703125 -33.75 23.46875 C-30.00839717 25.55214248 -27.17521791 25.85191315 -23 25 C-19.83651599 23.33821811 -19.83651599 23.33821811 -18 20 C-17.9034911 18.21044933 -17.86760467 16.41713584 -17.875 14.625 C-17.72367372 10.75835254 -17.51881355 9.48439806 -14.64453125 6.80078125 C-11.82039149 5.02123744 -9.00222122 3.45652316 -6 2 C-4.89591797 1.41412109 -4.89591797 1.41412109 -3.76953125 0.81640625 C-2 0 -2 0 0 0 Z " fill="#E73B22" transform="translate(596,439)"/>
</svg>
